<?xml version="1.0" encoding="utf-8"?>
<svg viewBox="0 0 500 500" xmlns="http://www.w3.org/2000/svg">
  <path style="fill: rgb(0, 0, 0); stroke: rgb(0, 0, 0);" d="M 25 218.756 L 475 218.756 C 475 218.756 475 218.756 475 291.19 C 475 315.335 475 315.335 437.5 315.335 C 362.5 315.335 325 315.335 325 315.335 L 325 411.913 C 325 411.913 325 411.913 362.5 411.913 C 380.979 411.913 400 411.913 400 436.057 C 400 460.202 400 460.202 400 460.202 L 137.5 460.202 C 137.5 460.202 137.5 444.105 137.5 436.057 C 137.5 411.913 137.5 411.913 175 411.913 C 186.548 411.913 212.5 411.913 212.5 411.913 L 212.5 339.479 C 212.5 339.479 212.5 291.19 137.5 291.19 C 62.5 291.19 25 218.756 25 218.756 Z"/>
  <path style="fill: rgb(0, 0, 0); stroke: rgb(0, 0, 0); stroke-linecap: round; stroke-miterlimit: 1;" d="M 291.812 202.641 C 300.821 202.641 307.068 197.67 310.725 192.918 C 314.482 188.021 315.957 183.042 315.957 183.042 L 366.311 10.731 L 398.978 10.731 L 348.216 184.433 L 382.967 184.433 L 363.473 251.132 L 261.324 251.132 C 262.447 247.513 264.599 239.866 270.45 227.196 C 273.377 220.857 276.732 214.709 280.461 210.052 C 284.161 205.433 287.778 202.641 291.812 202.641 Z" transform="matrix(0.49211, 0.870533, -0.870533, 0.49211, 281.660588, -220.908557)"/>
  <path style="fill: rgb(255, 236, 69); stroke: rgba(0, 0, 0, 0);" d="M 223.925 207.018 C 220.414 209.318 223.925 211.336 223.925 211.336 L 237.364 215.654 L 230.644 207.018 C 230.644 207.018 227.435 204.719 223.925 207.018 Z"/>
  <path style="fill: rgb(255, 236, 69); stroke: rgba(0, 0, 0, 0);" d="M 191.392 189.625 C 184.369 194.224 191.392 198.261 191.392 198.261 L 218.271 206.898 L 204.83 189.625 C 204.83 189.625 198.413 185.027 191.392 189.625 Z"/>
  <path style="fill: rgb(255, 236, 69); stroke: rgba(0, 0, 0, 0);" d="M 215.728 191.2 C 210.462 194.649 215.728 197.677 215.728 197.677 L 235.887 204.153 L 225.807 191.2 C 225.807 191.2 220.995 187.751 215.728 191.2 Z"/>
  <path style="fill: rgb(255, 236, 69); stroke: rgba(0, 0, 0, 0);" d="M 289.586 211.447 C 286.103 209.148 289.586 207.13 289.586 207.13 L 302.918 202.811 L 296.252 211.447 C 296.252 211.447 293.069 213.747 289.586 211.447 Z" transform="matrix(-1, 0, 0, -1, 590.956002, 415.280249)"/>
  <path style="fill: rgb(255, 236, 69); stroke: rgba(0, 0, 0, 0);" d="M 191.401 164.913 C 182.622 170.663 191.401 175.709 191.401 175.709 L 225 186.504 L 208.199 164.913 C 208.199 164.913 200.176 159.166 191.401 164.913 Z"/>
  <path style="fill: rgb(255, 236, 69); stroke: rgba(0, 0, 0, 0);" d="M 312.385 202.911 C 307.116 199.462 312.385 196.434 312.385 196.434 L 332.543 189.958 L 322.463 202.911 C 322.463 202.911 317.651 206.36 312.385 202.911 Z" transform="matrix(-1, 0, 0, -1, 642.586191, 394.401892)"/>
  <path style="fill: rgb(255, 236, 69); stroke: rgba(0, 0, 0, 0);" d="M 309.772 189.021 C 302.748 184.422 309.772 180.386 309.772 180.386 L 336.65 171.75 L 323.21 189.021 C 323.21 189.021 316.793 193.62 309.772 189.021 Z" transform="matrix(-1, 0, 0, -1, 643.30018, 362.815008)"/>
</svg>